<svg xmlns="http://www.w3.org/2000/svg" viewBox="0 0 24 24" width="24px" height="24px"><path d="M 3 4 C 1.346 4 0 5.346 0 7 L 0 15 C 0 16.654 1.346 18 3 18 L 10.625 18 L 17 20 L 16.529297 18 L 21 18 C 22.654 18 24 16.654 24 15 L 24 7 C 24 5.346 22.654 4 21 4 L 3 4 z M 3 6 L 21 6 C 21.551 6 22 6.449 22 7 L 22 15 C 22 15.551 21.551 16 21 16 L 16.529297 16 L 14.005859 16 L 14.25 17.041016 L 11.224609 16.091797 L 10.931641 16 L 10.625 16 L 3 16 C 2.449 16 2 15.551 2 15 L 2 7 C 2 6.449 2.449 6 3 6 z M 10.248047 7 C 9.9566719 7.0012656 9.6758906 7.1748906 9.5566406 7.4628906 C 9.1176406 8.5178906 8.8095781 9.8495313 8.6425781 11.394531 C 8.1405781 9.9835312 7.864375 8.6255156 7.859375 8.6035156 C 7.794375 8.2785156 7.5242656 8.0349063 7.1972656 8.0039062 C 6.8632656 7.9669062 6.5576406 8.1617969 6.4316406 8.4667969 L 5.0625 11.814453 C 4.8125 10.616453 4.559 9.10575 4.5 7.71875 C 4.484 7.30475 4.1197031 6.9679531 3.7207031 7.0019531 C 3.3067031 7.0179531 2.9839531 7.36725 3.0019531 7.78125 C 3.1289531 10.83525 4.1122969 14.309078 4.1542969 14.455078 C 4.2412969 14.763078 4.5169375 14.980047 4.8359375 14.998047 C 5.1499375 15.017047 5.4493125 14.829203 5.5703125 14.533203 L 6.9707031 11.111328 C 7.3497031 12.322328 7.9151562 13.764891 8.6601562 14.712891 C 8.8061562 14.896891 9.024 15 9.25 15 C 9.332 15 9.4141406 14.985984 9.4941406 14.958984 C 9.7961406 14.853984 10 14.569 10 14.25 C 10 11.703 10.335406 9.4961094 10.941406 8.0371094 C 11.100406 7.6561094 10.920109 7.2175937 10.537109 7.0585938 C 10.442859 7.0188438 10.345172 6.9995781 10.248047 7 z M 13.75 8 C 12.656 8.004 11.638984 9.0634062 11.333984 10.566406 C 11.140984 11.522406 11.286609 12.484578 11.724609 13.142578 C 12.021609 13.587578 12.427391 13.872797 12.900391 13.966797 C 13.012391 13.988797 13.125328 14 13.236328 14 C 14.331328 14 15.360016 12.944547 15.666016 11.435547 C 15.859016 10.479547 15.713391 9.517375 15.275391 8.859375 C 14.978391 8.414375 14.571656 8.1291562 14.097656 8.0351562 C 13.980656 8.0111562 13.865 8 13.75 8 z M 19 8 C 17.907 8.004 16.889984 9.0634062 16.583984 10.566406 C 16.390984 11.522406 16.536609 12.484578 16.974609 13.142578 C 17.271609 13.587578 17.677391 13.872797 18.150391 13.966797 C 18.262391 13.988797 18.375328 14 18.486328 14 C 19.581328 14 20.610016 12.944547 20.916016 11.435547 C 21.109016 10.479547 20.963391 9.517375 20.525391 8.859375 C 20.228391 8.414375 19.821656 8.1291562 19.347656 8.0351562 C 19.230656 8.0111562 19.115 8 19 8 z M 13.767578 9.5019531 C 13.779578 9.5019531 13.792687 9.5038594 13.804688 9.5058594 C 13.898688 9.5248594 13.978344 9.6164531 14.027344 9.6894531 C 14.190344 9.9354531 14.333312 10.461672 14.195312 11.138672 C 14.008312 12.066672 13.456312 12.542094 13.195312 12.496094 C 13.101312 12.477094 13.023609 12.3855 12.974609 12.3125 C 12.811609 12.0665 12.668641 11.540281 12.806641 10.863281 C 12.985641 9.9762812 13.506578 9.5019531 13.767578 9.5019531 z M 19.017578 9.5019531 C 19.029578 9.5019531 19.042688 9.5038594 19.054688 9.5058594 C 19.148688 9.5248594 19.228344 9.6164531 19.277344 9.6894531 C 19.440344 9.9354531 19.583313 10.461672 19.445312 11.138672 C 19.258313 12.066672 18.699313 12.542094 18.445312 12.496094 C 18.351312 12.477094 18.273609 12.3855 18.224609 12.3125 C 18.061609 12.0665 17.918641 11.540281 18.056641 10.863281 C 18.235641 9.9762812 18.756578 9.5019531 19.017578 9.5019531 z"></path></svg>